<?xml version="1.0" encoding="UTF-8"?>
<svg width="256px" height="383px" viewBox="0 0 256 383" version="1.1" xmlns="http://www.w3.org/2000/svg" xmlns:xlink="http://www.w3.org/1999/xlink" preserveAspectRatio="xMidYMid">
	<defs>
    <linearGradient x1="-34.8804169%" y1="187.706139%" x2="110.598662%" y2="-51.1003524%" id="linearGradient-1">
            <stop stop-color="#9E2064" offset="10.33%"></stop>
            <stop stop-color="#C92037" offset="33.02%"></stop>
            <stop stop-color="#CD2335" offset="55.14%"></stop>
            <stop stop-color="#E97826" offset="75%"></stop>
            <stop stop-color="#ff9700" offset="80%"></stop>
        </linearGradient>
  </defs>
	<g>
		<path d="M70.0112,143.0033 L122.1892,37.6593 C122.9432,36.3093 123.9352,35.6913 125.0672,35.6913 C126.7762,35.6913 128.1572,37.0783 128.1572,38.7963 C128.1572,38.8263 128.0782,39.4753 128.0782,39.4753 L119.2922,110.6993 C119.1962,111.5563 119.1772,111.8613 119.1772,112.1733 C119.1772,117.3133 123.3382,121.4763 128.4742,121.4763 L177.1592,121.5243 C184.3322,122.0873 189.9902,128.0953 189.9902,135.4303 C189.9902,137.5933 189.4972,139.6413 188.6102,141.4693 L136.0732,247.5523 L135.7442,248.2363 C135.1662,249.0733 134.2112,249.6173 133.1582,249.6173 C131.4492,249.6173 130.0492,248.2363 130.0492,246.5133 C130.1162,245.8893 138.8652,175.0303 138.8652,175.0303 C138.9692,174.5483 139.0302,174.0533 139.0482,173.5453 C139.0662,167.9893 134.9052,163.8203 129.7702,163.8203 L81.0352,163.7723 C73.8632,163.2163 68.2042,157.2073 68.2042,149.8723 C68.2042,147.9533 68.5812,146.1263 69.2872,144.4633 C69.2872,144.4573 70.0112,143.0033 70.0112,143.0033" fill="url(#linearGradient-1)"></path>
	</g>
</svg>
